# AST/ASF file generated using VICON BodyLanguage
# -----------------------------------------------
:version 1.10
:name VICON
:units
  mass 1.0
  length 0.45
  angle deg
:documentation
   .ast/.asf automatically generated from VICON data using
   VICON BodyBuilder and BodyLanguage model FoxedUp or BRILLIANT.MOD
:root
   order TX TY TZ RX RY RZ
   axis XYZ
   position 0 0 0  
   orientation 0 0 0 
:bonedata
  begin
     id 1 
     name lhipjoint
     direction 0.535335 -0.74333 0.401095 
     length 2.04549 
     axis 0 0 0  XYZ
  end
  begin
     id 2 
     name lfemur
     direction 0.34202 -0.939693 0  
     length 6.95643  
     axis 0 0 20  XYZ
    dof rx ry rz
    limits (-160.0 20.0)
           (-70.0 70.0)
           (-60.0 70.0)
  end
  begin
     id 3 
     name ltibia
     direction 0.34192 -0.939729 0   
     length 5.55969   
     axis 0 0 20   XYZ
    dof rx
    limits (-10.0 170.0)
  end
  begin
     id 4 
     name lfoot
     direction 0.216943 -0.596046 0.773088   
     length 2.27918   
     axis -90 7.62852e-016 20   XYZ
    dof rx rz
    limits (-45.0 90.0)
           (-70.0 20.0)
  end
  begin
     id 5 
     name ltoes
     direction 1.53519e-011 -4.21748e-011 1   
     length 1.05562   
     axis -90 7.62852e-016 20   XYZ
    dof rx
    limits (-90.0 20.0)
  end
  begin
     id 6 
     name rhipjoint
     direction -0.576368 -0.719173 0.38806   
     length 2.1142  
     axis 0 0 0  XYZ 
  end
  begin
     id 7 
     name rfemur
     direction -0.34202 -0.939693 0   
     length 7.07928   
     axis 0 0 -20   XYZ
    dof rx ry rz
    limits (-160.0 20.0)
           (-70.0 70.0)
           (-70.0 60.0)
  end
  begin
     id 8 
     name rtibia
     direction -0.34202 -0.939693 0   
     length 5.79974   
     axis 0 0 -20   XYZ
    dof rx
    limits (-10.0 170.0)
 end
 begin
     id 9 
     name rfoot
     direction -0.189288 -0.520065 0.832888   
     length 2.42173  
     axis -90 -7.62852e-016 -20   XYZ
    dof rx rz
    limits (-45.0 90.0)
           (-20.0 70.0)
  end
  begin
     id 10 
     name rtoes
     direction -1.53574e-011 -4.21658e-011 1   
     length 1.14469   
     axis -90 -7.62852e-016 -20   XYZ
    dof rx
    limits (-90.0 20.0)
  end
  begin
     id 11 
     name lowerback
     direction -0.00135702 0.993803 0.111144   
     length 1.91308   
     axis 0 0 0   XYZ
    dof rx ry rz
    limits (-20.0 45.0)
           (-30.0 30.0)
           (-30.0 30.0)
  end
  begin
     id 12 
     name upperback
     direction -0.0056745 0.999813 0.0184631   
     length 1.9212   
     axis 0 0 0   XYZ
    dof rx ry rz
    limits (-20.0 45.0)
           (-30.0 30.0)
           (-30.0 30.0)
  end
  begin
     id 13 
     name thorax
     direction -0.00733434 0.999426 -0.0330788   
     length 1.94196   
     axis 0 0 0   XYZ
    dof rx ry rz
    limits (-20.0 45.0)
           (-30.0 30.0)
           (-30.0 30.0)
  end
  begin
     id 14 
     name lowerneck
     direction 0.0563074 0.996944 -0.0541571   
     length 2.34257   
     axis 0 0 0   XYZ
    dof rx ry rz
    limits (-20.0 45.0)
           (-30.0 30.0)
           (-30.0 30.0)
  end
  begin
     id 15 
     name upperneck
     direction -0.0544519 0.976166 -0.210085   
     length 2.32506   
     axis 0 0 0   XYZ
    dof rx ry rz
    limits (-20.0 45.0)
           (-30.0 30.0)
           (-30.0 30.0)
  end
  begin
     id 16
     name head
     direction -0.0226035 0.997615 -0.0652205  
     length 2.3648  
     axis 0 0 0   XYZ
    dof rx ry rz
    limits (-20.0 45.0)
           (-30.0 30.0)
           (-30.0 30.0)
  end
  begin
     id 17 
     name lclavicle
     direction 0.92109 0.381297 -0.0787716  
     length 4.0487  
     axis 0 0 0   XYZ
    dof ry rz
    limits (-20.0 10.0)
           (0.0 20.0)
  end
  begin
     id 18 
     name lhumerus
     direction 1 -4.48986e-011 3.56724e-027   
     length 4.94991   
     axis 180 -30 -90   XYZ
    dof rx ry rz
    limits (-60.0 90.0)
           (-90.0 90.0)
           (-90.0 90.0)
  end
  begin
     id 19
     name lradius
     direction 1 -4.48981e-011 8.62147e-027   
     length 2.7606   
     axis 180 -30 -90   XYZ
    dof rx
    limits (-10.0 170.0)
  end
  begin
     id 20
     name lwrist
     direction 1 -4.48989e-011 1.59799e-026   
     length 1.3803   
     axis -1.17785e-014 90 90   XYZ
    dof ry
    limits (-180.0 0.0)
 end
  begin
     id 21 
     name lhand
     direction 1 -4.48896e-011 3.19599e-026   
     length 0.843936   
     axis -2.03931e-014 90 90   XYZ
    dof rx rz
    limits (-90.0 90.0)
           (-45.0 45.0)
  end
  begin
     id 22 
     name lfingers
     direction 1 -4.48887e-011 6.39197e-026   
     length 0.680403   
     axis -4.07862e-014 90 90   XYZ
    dof rx
    limits (0.0 90.0)
  end
  begin
     id 23
     name lthumb
     direction 0.707107 -6.348e-011 0.707107   
     length 0.976926   
     axis -90 45 2.85299e-015   XYZ
    dof rx rz
    limits (-45.0 45.0)
           (-45.0 45.0)
  end
  begin
     id 24 
     name rclavicle
     direction -0.951104 0.307692 -0.026953   
     length 4.21801  
     axis 0 0 0   XYZ 
    dof ry rz
    limits (-10.0 20.0)
           (-20.0 0.0)
  end
  begin
     id 25 
     name rhumerus
     direction -1 -4.4896e-011 -1.8171e-018  
     length 4.32982   
     axis 180 30 90   XYZ
    dof rx ry rz
    limits (-90.0 60.0)
           (-90.0 90.0)
           (-90.0 90.0)
  end
  begin
     id 26 
     name rradius
     direction -1 -4.48959e-011 8.25165e-027   
     length 3.20057   
     axis 180 30 90   XYZ
    dof rx
    limits (-10.0 170.0)
  end
  begin
     id 27 
     name rwrist
     direction -1 -4.48997e-011 1.59799e-026   
     length 1.60029   
     axis -1.17785e-014 -90 -90   XYZ
    dof ry
    limits (-180.0 0.0)
  end
  begin
     id 28
     name rhand
     direction -1 -4.49023e-011 3.19599e-026   
     length 0.960433   
     axis -2.03931e-014 -90 -90   XYZ
    dof rx rz
    limits (-90.0 90.0)
           (-45.0 45.0)
  end
  begin
     id 29
     name rfingers
     direction -1 -4.48802e-011 6.39197e-026   
     length 0.774326   
     axis -4.07862e-014 -90 -90   XYZ
    dof rx
    limits (0.0 90.0)
  end
  begin
     id 30
     name rthumb
     direction -0.707107 -6.34876e-011 0.707107   
     length 1.11178   
     axis -90 -45 -2.85299e-015   XYZ
    dof rx rz
    limits (-45.0 45.0)
           (-45.0 45.0)
  end
:hierarchy
  begin
    root lhipjoint rhipjoint lowerback
    lhipjoint lfemur
    lfemur ltibia
    ltibia lfoot
    lfoot ltoes
    rhipjoint rfemur
    rfemur rtibia
    rtibia rfoot
    rfoot rtoes
    lowerback upperback
    upperback thorax
    thorax lowerneck lclavicle rclavicle
    lowerneck upperneck
    upperneck head
    lclavicle lhumerus
    lhumerus lradius
    lradius lwrist
    lwrist lhand lthumb
    lhand lfingers
    rclavicle rhumerus
    rhumerus rradius
    rradius rwrist
    rwrist rhand rthumb
    rhand rfingers
end

#!OML:ASF C:\KaitlinTest1\Natural Motions\Nikki\Session 2\Nikki.ASF
:FULLY-SPECIFIED
:DEGREES
212
root -18.8895 16.6304 5.00818 -152.942 85.7218 -162.821
lowerback -13.3261 -1.72433 -0.0461096
upperback -4.00527 -2.07553 -0.46626
thorax 3.23851 -0.953461 -0.784042
lowerneck -1.91215 1.61354 8.46532
upperneck 27.3227 3.85073 -5.51648
head 9.10034 2.54645 -2.97958
rclavicle -1.46604e-015 -8.34896e-015
rhumerus -42.3936 -22.3519 -78.9397
rradius 18.4287
rwrist 29.3377
rhand -35.8053 3.14953
rfingers 7.12502
rthumb -8.92189 -26.6418
lclavicle -1.46604e-015 -8.34896e-015
lhumerus -42.1218 16.0716 80.5384
lradius 24.0466
lwrist -39.6515
lhand -32.8852 3.54651
lfingers 7.12502
lthumb -6.10334 33.4386
rfemur -7.54502 -16.4417 20.9671
rtibia 10.8264
rfoot -10.4296 11.6274
rtoes -9.22361e-014
lfemur -10.0726 12.0529 -17.928
ltibia 10.0759
lfoot -2.29609 -16.7913
ltoes -7.31528e-014
213
root -18.888 16.6302 5.00729 -153.224 85.7619 -163.055
lowerback -13.3001 -1.71398 -0.0714855
upperback -3.98659 -2.05977 -0.469216
thorax 3.24496 -0.946187 -0.769941
lowerneck -1.93819 1.61058 8.46496
upperneck 27.3441 3.85376 -5.54758
head 9.1133 2.54499 -2.9901
rclavicle -1.72197e-014 3.57812e-015
rhumerus -42.4055 -22.4153 -78.8607
rradius 18.3874
rwrist 29.4737
rhand -35.7945 3.11674
rfingers 7.12502
rthumb -8.91154 -26.6751
lclavicle -1.72197e-014 3.57812e-015
lhumerus -42.1263 15.9946 80.6216
lradius 24.1253
lwrist -39.4032
lhand -32.8315 3.62796
lfingers 7.12502
lthumb -6.05158 33.5215
rfemur -7.48042 -16.4622 20.9076
rtibia 10.8081
rfoot -10.4091 11.6884
rtoes 1.82882e-014
lfemur -10.0064 12.0457 -17.9554
ltibia 10.0823
lfoot -2.30367 -16.775
ltoes 0
214
root -18.8899 16.6306 5.00799 -153.447 85.7414 -163.282
lowerback -13.2786 -1.72948 -0.0961351
upperback -4.0039 -2.07676 -0.463558
thorax 3.21613 -0.95448 -0.751846
lowerneck -1.87133 1.60833 8.4633
upperneck 27.2957 3.85407 -5.54906
head 9.08367 2.54518 -2.99044
rclavicle 1.31943e-014 8.34896e-015
rhumerus -42.4356 -22.3678 -78.8774
rradius 18.3983
rwrist 29.4027
rhand -35.7886 3.11051
rfingers 7.12502
rthumb -8.90578 -26.6815
lclavicle 1.31943e-014 8.34896e-015
lhumerus -42.1732 16.065 80.5518
lradius 24.0839
lwrist -39.6081
lhand -32.8517 3.61653
lfingers 7.12502
lthumb -6.07108 33.5095
rfemur -7.48263 -16.4421 20.9094
rtibia 10.8008
rfoot -10.4 11.6321
rtoes -3.97569e-015
lfemur -10.016 12.0214 -17.961
ltibia 10.0704
lfoot -2.31626 -16.754
ltoes -1.59028e-015
215
root -18.8899 16.6312 5.00777 -153.37 85.7355 -163.207
lowerback -13.326 -1.72533 -0.0860524
upperback -3.96641 -2.0732 -0.471118
thorax 3.28041 -0.952952 -0.767038
lowerneck -1.94043 1.61327 8.45561
upperneck 27.3113 3.84486 -5.51166
head 9.10082 2.54168 -2.97639
rclavicle -9.93923e-016 1.59028e-015
rhumerus -42.398 -22.5712 -78.8046
rradius 18.3393
rwrist 29.5934
rhand -35.8263 3.15646
rfingers 7.12502
rthumb -8.94214 -26.634
lclavicle -9.93923e-016 1.59028e-015
lhumerus -42.1098 16.0665 80.54
lradius 24.0845
lwrist -39.6571
lhand -32.8265 3.63843
lfingers 7.12502
lthumb -6.0467 33.5321
rfemur -7.48607 -16.4597 20.9165
rtibia 10.804
rfoot -10.4124 11.648
rtoes -6.99722e-014
lfemur -10.0046 11.979 -17.95
ltibia 10.0491
lfoot -2.291 -16.7195
ltoes -2.8625e-014
216
root -18.8907 16.6311 5.00767 -153.259 85.7364 -163.093
lowerback -13.3195 -1.72065 -0.0698258
upperback -3.96398 -2.06923 -0.474958
thorax 3.27876 -0.951066 -0.779395
lowerneck -1.96969 1.60721 8.45413
upperneck 27.338 3.8334 -5.50307
head 9.11466 2.53701 -2.97412
rclavicle 2.29596e-014 1.47101e-014
rhumerus -42.3983 -22.5471 -78.836
rradius 18.3542
rwrist 29.5168
rhand -35.8501 3.16368
rfingers 7.12502
rthumb -8.96517 -26.6258
lclavicle 2.29596e-014 1.47101e-014
lhumerus -42.1122 16.11 80.4892
lradius 24.0583
lwrist -39.7384
lhand -32.8395 3.57126
lfingers 7.12502
lthumb -6.05927 33.4646
rfemur -7.4851 -16.4304 20.9218
rtibia 10.8122
rfoot -10.4135 11.623
rtoes 2.06736e-014
lfemur -9.99619 11.9702 -17.9408
ltibia 10.0308
lfoot -2.2829 -16.69
ltoes -2.70347e-014
217
root -18.8918 16.6313 5.00799 -153.258 85.7174 -163.081
lowerback -13.2982 -1.72275 -0.066923
upperback -3.96858 -2.07286 -0.467036
thorax 3.26253 -0.952942 -0.7726
lowerneck -1.94338 1.59913 8.44226
upperneck 27.3239 3.83009 -5.52205
head 9.10435 2.53296 -2.97909
rclavicle 5.26779e-015 -3.97569e-015
rhumerus -42.4395 -22.5981 -78.7695
rradius 18.3475
rwrist 29.6497
rhand -35.8407 3.14054
rfingers 7.12502
rthumb -8.95604 -26.6494
lclavicle 5.26779e-015 -3.97569e-015
lhumerus -42.1456 16.1289 80.4676
lradius 24.0715
lwrist -39.841
lhand -32.7424 3.63527
lfingers 7.12502
lthumb -5.96551 33.5313
rfemur -7.46807 -16.4133 20.9294
rtibia 10.8012
rfoot -10.4211 11.6042
rtoes 1.59028e-014
lfemur -9.99512 11.9703 -17.9292
ltibia 10.0376
lfoot -2.28242 -16.7144
ltoes 5.08889e-014
